<?xml version="1.0" encoding="utf-8"?>
<!-- Generator: Adobe Illustrator 28.0.0, SVG Export Plug-In . SVG Version: 6.00 Build 0)  -->
<svg version="1.1" id="Layer_1" xmlns="http://www.w3.org/2000/svg" xmlns:xlink="http://www.w3.org/1999/xlink" x="0px" y="0px"
	 viewBox="0 0 841.9 595.3" style="enable-background:new 0 0 841.9 595.3;" xml:space="preserve">
<style type="text/css">
	.st0{fill-rule:evenodd;clip-rule:evenodd;fill:#FDB913;}
	.st1{fill:#FDB913;}
	.st2{fill:#1D1E1C;}
	.st3{fill-rule:evenodd;clip-rule:evenodd;fill:#1D1E1C;}
	.st4{enable-background:new    ;}
</style>
<path class="st0" d="M602.9,284.3h-15.7c3,12.6-0.7,26.5-10.9,36c-15.1,14.1-38.8,13.3-52.9-1.8c-8.8-9.4-11.8-22.1-9.2-33.8
	c0.2-1.1,0.5-2.1,0.8-3.1c-9,19.1-5.6,43.2,10.3,60.3c20.6,22,54.3,24,75.2,4.4c10.9-10.1,17.9-22.8,21.1-36.3h-19L602.9,284.3
	L602.9,284.3z"/>
<path class="st1" d="M295.6,180.4c-11.7,14.5-80.4,91.8-130.4,151.7c10.7-49.5,29.6-155.6,46.2-177.3c16.4-21.5,39.7-24.9,39.7-24.9
	s-87.3-25.1-112.6,80.8c-9.3,38.9-37.7,177-37.7,177c0.5,1.2,79.5,7.9,117.8-36.8c13.9-16.2,72.2-88.2,106.2-131
	c-1.4-0.9-2.7-2-3.9-3.2c-2.4-2.4-4.3-5.2-5.7-8.4c-1.4-3.2-2.1-6.7-2.1-10.3s0.7-7.1,2.1-10.3s3.3-6,5.7-8.4s5.2-4.3,8.4-5.7
	c3.2-1.4,6.7-2.1,10.3-2.1s7.1,0.7,10.3,2.1c2.9,1.2,5.5,3,7.7,5.1c41-47.8,65.8-51.4,65.8-51.4S345.4,118.5,295.6,180.4
	L295.6,180.4z"/>
<path class="st2" d="M318,197.7c0-3,0.6-5.8,1.7-8.4c1.1-2.6,2.7-4.9,4.7-6.9s4.3-3.5,6.9-4.7c2.6-1.1,5.4-1.7,8.4-1.7
	s5.8,0.6,8.4,1.7c2.6,1.1,4.9,2.7,6.9,4.7s3.5,4.3,4.7,6.9c1.1,2.6,1.7,5.4,1.7,8.4s-0.6,5.8-1.7,8.4c-1.1,2.6-2.7,4.9-4.7,6.9
	s-4.3,3.5-6.9,4.7c-2.6,1.1-5.4,1.7-8.4,1.7s-5.8-0.6-8.4-1.7c-2.6-1.1-4.9-2.7-6.9-4.7s-3.5-4.3-4.7-6.9
	C318.6,203.5,318,200.7,318,197.7z"/>
<rect x="320.6" y="239.6" class="st2" width="38.5" height="109.1"/>
<path class="st2" d="M479.7,265.1c-0.1-0.4-0.2-0.9-0.3-1.3c-1.1-4.5-3.3-8.6-6.4-12.3c-3.8-4.5-8.5-8-13.9-10.5
	c-5.5-2.5-12-3.7-19.7-3.7c-7.2,0-13.5,1.1-18.9,3.3s-10.7,6.5-15.9,12.9v-13.8h-38.5v109h38.5v-58.2c0-7.2,1.7-12.8,5.2-16.7
	c3.5-3.9,8.5-5.9,15-5.9c2.4,0,4.7,0.4,6.8,1.1c2.1,0.7,4,1.9,5.7,3.6c2,2,3.4,4.6,4.1,8c0.8,3.3,1.2,7.7,1.2,13.1v55h38.5v-24.3
	C472.7,305.8,472.1,284.5,479.7,265.1L479.7,265.1z"/>
<path class="st3" d="M515.2,281.6L515.2,281.6L515.2,281.6L515.2,281.6z M515.2,281.6l6.5,6.8l3.4-20.8l0.3-2.1l3.8-23.5v-0.3
	l-24.1,2.4l-9.5,0.9l-13.8,1.4l7.1,7.6c-0.5,0.8-1,1.6-1.5,2.5c-15.7,27.1-12.6,62.4,9.9,86.5c27.6,29.5,73.8,31,103.3,3.5
	c-21,19.6-54.6,17.6-75.2-4.4C509.5,324.8,506.1,300.7,515.2,281.6L515.2,281.6L515.2,281.6z"/>
<path class="st0" d="M552.6,245.7v-25.8c-18.4-0.4-37.1,6.1-51.6,19.7c-0.8,0.8-1.6,1.6-2.4,2.3l4.2-0.4l29.9-3l-0.4,2.3l-3.6,22
	c4.1-3,8.6-5.1,13.3-6.2c12.7-3.1,26.7,0.5,36.3,10.8c1.6,1.7,2.9,3.5,4.1,5.3v-27L552.6,245.7L552.6,245.7z"/>
<rect x="563.2" y="198.7" class="st1" width="22.3" height="22.4"/>
<polygon class="st2" points="697.2,240.9 670.9,296.9 645,240.9 624.5,240.9 624.5,259.2 611,259.2 618.9,274.5 639.5,274.5 
	639.5,299.9 631.9,299.9 657.7,350 683.4,350 740.2,240.9 "/>
<rect x="616.3" y="276.7" class="st1" width="21" height="21"/>
<rect x="590.5" y="225.1" class="st1" width="31.9" height="31.9"/>
<rect x="603.9" y="185.1" class="st1" width="22.3" height="22.4"/>
<rect x="635.4" y="215.2" class="st1" width="11.1" height="11.1"/>
<g class="st4">
	<path class="st2" d="M343.5,458.8l-13-26.1h-0.2v26.1H318V406h12.3v23.7h0.2l13.3-23.7h12.7l-14.9,24.2l15.9,28.5L343.5,458.8
		L343.5,458.8z"/>
	<path class="st2" d="M390.5,458.8l-3.2-11.3h-15.9l-3.4,11.3h-11.1l17.2-52.7h12.1l17.1,52.7H390.5z M380.9,423.2
		c-0.3-0.9-0.5-1.8-0.6-2.5c-0.2-0.8-0.3-1.4-0.4-2c-0.1-0.7-0.2-1.3-0.2-1.8h-0.2c-0.1,0.5-0.2,1.1-0.3,1.8c-0.1,0.6-0.2,1.2-0.4,2
		c-0.2,0.8-0.4,1.6-0.7,2.6l-4.9,17.2h12.3L380.9,423.2z"/>
	<path class="st2" d="M448.5,458.8c0-0.3-0.1-0.9-0.2-1.9s-0.2-2.2-0.3-3.7c-0.1-1.5-0.3-3.1-0.4-4.9s-0.3-3.6-0.5-5.4
		c-0.4-4.3-0.8-9.1-1.2-14.4c-0.1-0.8-0.2-1.6-0.2-2.4s0-1.5,0-2.1v-2h-0.2c-0.1,0.7-0.3,1.3-0.5,2c-0.2,0.6-0.3,1.3-0.5,2
		s-0.4,1.5-0.7,2.4c-1.5,5.2-2.9,9.9-4.1,14.2c-0.6,1.8-1.1,3.7-1.6,5.4c-0.5,1.8-1,3.4-1.4,4.9s-0.8,2.7-1.1,3.8
		c-0.3,1-0.5,1.7-0.6,2h-6.2c-0.1-0.3-0.3-0.9-0.6-1.9c-0.3-1-0.7-2.3-1.1-3.8s-0.9-3.1-1.5-4.9c-0.5-1.8-1.1-3.6-1.6-5.4
		c-1.3-4.3-2.7-9.1-4.1-14.3c-0.3-0.9-0.5-1.7-0.7-2.4c-0.2-0.7-0.3-1.4-0.5-2c-0.2-0.7-0.4-1.3-0.5-2H418v2c0,0.6,0,1.3,0,2
		s-0.1,1.5-0.2,2.4c-0.5,5.3-0.9,10-1.3,14.3c-0.2,1.8-0.3,3.7-0.5,5.4c-0.2,1.8-0.3,3.4-0.4,4.9s-0.2,2.7-0.3,3.7
		c-0.1,1-0.2,1.7-0.2,2H405l5.6-52.7h12.1l8.2,29.5c0.3,0.8,0.5,1.6,0.6,2.3s0.3,1.3,0.4,1.9c0.2,0.6,0.3,1.2,0.4,1.8h0.2
		c0.1-0.6,0.2-1.1,0.4-1.8c0.2-1,0.6-2.4,1.1-4.1l8.7-29.5h12l5.7,52.7H448.5z"/>
	<path class="st2" d="M503,422.1c0,2.5-0.4,4.8-1.3,7s-2.2,4.1-4,5.7s-4.1,2.8-7,3.6c-2.8,0.8-6.2,1-10.2,0.7l-1.7-0.2v19.8h-12.2
		v-50.4c1.9-0.9,4.2-1.7,6.9-2.2c2.7-0.6,5.7-0.8,9.1-0.8c3.7,0,6.8,0.4,9.3,1.3c2.6,0.9,4.6,2.1,6.3,3.6c1.6,1.5,2.8,3.3,3.6,5.4
		C502.6,417.6,503,419.8,503,422.1z M491.2,422.1c0-3.3-0.6-5.8-1.9-7.4s-3.5-2.4-6.7-2.4c-0.9,0-1.6,0.1-2.3,0.2
		c-0.6,0.1-1.1,0.3-1.5,0.4v18.8l1.7,0.1c3.9,0.2,6.7-0.5,8.3-2.1S491.2,425.5,491.2,422.1z"/>
	<path class="st2" d="M545.7,443.2c0,2.5-0.5,4.8-1.4,6.8s-2.2,3.7-3.8,5.2c-1.6,1.4-3.6,2.5-5.8,3.3s-4.7,1.1-7.3,1.1
		s-5-0.4-7.3-1.1c-2.2-0.8-4.2-1.9-5.8-3.3s-2.9-3.1-3.8-5.1s-1.4-4.3-1.4-6.9V406h12.5v37.1c0,2.4,0.6,4.1,1.8,5.3
		c1.2,1.2,2.7,1.8,4.5,1.8s3.3-0.6,4.5-1.8c1.2-1.2,1.8-3,1.8-5.4v-37h11.5L545.7,443.2L545.7,443.2z M525.7,397.2
		c0,1.3-0.5,2.4-1.6,3.3c-1,0.9-2.3,1.3-3.7,1.3s-2.7-0.4-3.7-1.3s-1.5-2-1.5-3.3s0.5-2.4,1.5-3.3s2.2-1.3,3.7-1.3
		c1.4,0,2.7,0.4,3.7,1.3C525.2,394.7,525.7,395.8,525.7,397.2z M540.6,397.2c0,1.3-0.5,2.4-1.6,3.3c-1,0.9-2.3,1.3-3.7,1.3
		s-2.7-0.4-3.7-1.3s-1.5-2-1.5-3.3s0.5-2.4,1.5-3.3s2.2-1.3,3.7-1.3s2.7,0.4,3.7,1.3C540.1,394.7,540.6,395.8,540.6,397.2z"/>
	<path class="st2" d="M583,443c0,2.4-0.4,4.6-1.3,6.6c-0.9,2-2.1,3.8-3.6,5.2c-1.6,1.5-3.4,2.6-5.6,3.4c-2.2,0.8-4.6,1.3-7.2,1.3
		c-3.3,0-6-0.3-8.2-0.8s-4.1-1.3-5.6-2.3l2.8-8.7c0.9,0.6,2,1.1,3.5,1.6s3.1,0.8,5,0.8c2.2,0,3.9-0.6,5.2-1.7s1.9-2.7,1.9-4.6
		c0-1.7-0.5-3.1-1.6-4.3c-1.1-1.2-3-2.3-5.7-3.5c-2-0.9-3.7-2-5.1-3.1c-1.4-1.1-2.4-2.4-3.2-3.6c-0.8-1.3-1.4-2.6-1.7-3.9
		s-0.5-2.6-0.5-3.9c0-2.2,0.4-4.3,1.1-6.3c0.8-2,1.9-3.7,3.3-5.2c1.5-1.5,3.2-2.6,5.3-3.5s4.4-1.3,6.9-1.3c2.9,0,5.3,0.3,7.4,0.9
		c2,0.6,3.7,1.3,5,2.2l-2.6,7.6c-0.9-0.6-2.1-1.1-3.4-1.6c-1.4-0.5-2.8-0.7-4.5-0.7c-2.1,0-3.7,0.5-4.8,1.6s-1.6,2.6-1.6,4.4
		c0,1.9,0.6,3.5,1.9,4.6c1.3,1.1,3,2.2,5.2,3.2c2.6,1.2,4.6,2.4,6.1,3.6c1.5,1.3,2.7,2.5,3.5,3.9c0.8,1.3,1.4,2.7,1.6,4
		C582.9,440.3,583,441.6,583,443z"/>
</g>
</svg>
